<svg width="256" height="256" viewBox="0 0 256 256" fill="none" xmlns="http://www.w3.org/2000/svg" role="img" aria-labelledby="title desc">
  <title id="title">BiliScriptor Icon</title>
  <desc id="desc">A stylized Bilibili video terminal and manuscript icon.</desc>
  <defs>
    <linearGradient id="bg" x1="36" y1="26" x2="224" y2="232" gradientUnits="userSpaceOnUse">
      <stop offset="0" stop-color="#1BC7E8"/>
      <stop offset="0.46" stop-color="#4F7CFF"/>
      <stop offset="1" stop-color="#8F5BFF"/>
    </linearGradient>
    <linearGradient id="paper" x1="78" y1="70" x2="178" y2="210" gradientUnits="userSpaceOnUse">
      <stop stop-color="#FFFFFF"/>
      <stop offset="1" stop-color="#DFF7FF"/>
    </linearGradient>
    <filter id="shadow" x="22" y="20" width="218" height="222" filterUnits="userSpaceOnUse" color-interpolation-filters="sRGB">
      <feDropShadow dx="0" dy="14" stdDeviation="15" flood-color="#1A2670" flood-opacity="0.22"/>
    </filter>
  </defs>
  <rect width="256" height="256" rx="56" fill="#F6FBFF"/>
  <g filter="url(#shadow)">
    <rect x="38" y="34" width="180" height="184" rx="44" fill="url(#bg)"/>
    <path d="M87 58L103 78M169 58L153 78" stroke="#DFF8FF" stroke-width="10" stroke-linecap="round"/>
    <rect x="67" y="78" width="122" height="80" rx="24" fill="#F8FDFF" stroke="#C6F3FF" stroke-width="7"/>
    <circle cx="103" cy="119" r="8" fill="#3150CE"/>
    <circle cx="153" cy="119" r="8" fill="#3150CE"/>
    <path d="M96 145C112 157 144 157 160 145" stroke="#3150CE" stroke-width="7" stroke-linecap="round"/>
    <path d="M84 151H172V196C172 202.627 166.627 208 160 208H96C89.3726 208 84 202.627 84 196V151Z" fill="url(#paper)"/>
    <path d="M104 170H153M104 188H140" stroke="#4F7CFF" stroke-width="8" stroke-linecap="round"/>
    <path d="M128 94L144 120H112L128 94Z" fill="#FF77A8"/>
  </g>
</svg>
